<?xml version="1.0" encoding="UTF-8"?>
<svg id="a" data-name="Capa 1" xmlns="http://www.w3.org/2000/svg" width="389.6" height="68.35" viewBox="0 0 389.6 68.35">
  <defs>
    <style>
      .b {
        fill: #fff;
      }
    </style>
  </defs>
  <path d="M0,51.57L17.83,4.87c4.87-7.21,16.26-6.17,19.85,1.58l16.29,45.9h-12.12l-4-10.22-20.93.16-3.7,9.98-13.22.08v-.78ZM19.55,32.02h14.86l-6.66-21.13c-1.35-.17-1.55.99-1.99,1.92-2.63,5.46-3.87,13.42-6.21,19.21Z"/>
  <path d="M236.61.73c18.08,2.14,24.1,22.84,9.01,33.3,1.91,3.22,4.44,10.76,9.39,7.78,2.16-1.3,11.17-32.32,14.06-36.78,5.16-6.96,15.86-6.8,19.96,1.17l15.24,40.68V1.9l1.17-1.17h23.47c7.98,0,16.73,7.21,17.6,15.25.96,8.92-2.41,12.38-7.7,18.63,2.16,4.89,3.72,8.81,10.05,7.58V.73h23.07c7.97,0,16.63,8.18,17.51,16.12,1.95,17.47-14.27,23.03-28.85,21.43v14.08h-21.51c-.34,0-5.22-2.88-5.87-3.52-2.09-2.05-5.93-11.08-7.03-11.75l-9.4-.38v15.64h-24.25l-2.72-9.41-21.8-.8-3.75,10.09c-.73.47-15.36.25-17.3-.08-7.23-1.22-10.33-9.48-13.22-15.33-3.16.1-7.64-1.18-10.05,1.05v14.47h-11.73V.73c7.81.67,17.01-.9,24.64,0ZM223.71,12.07v14.47h12.91c4.35,0,6.86-9.21,3.27-13.05-2.46-2.64-15.4-3.95-16.18-1.42ZM286.28,32.02c-1.02-2.65-6.14-21.11-7.43-21.1-4.05,6.26-4.7,14.46-8.21,21.1h15.64ZM316.79,26.54h12.12c3.22,0,6.07-5.42,5.56-8.62-1.36-8.41-11.29-7.06-17.68-7.03v15.64ZM360.59,12.07v15.25h12.12c.62,0,3.85-4.01,4.13-5.25,1.56-6.71-1.69-10.29-8.13-11.09-1.68-.21-7.59-.67-8.13,1.08Z"/>
  <path d="M118.89,10.9h-21.51c-2.44,0-5.63,3.49-4.77,6.27,1.84,5.99,11.65,3.31,16.44,3.96,5.99.81,10.58,5.45,12.58,10.89l4.25-5.87c-7.41-6.58-5.96-18.49,2.63-23.24,7.38-4.08,19.94-1.49,28.21-2.07,2.43.79.86,7.84,1.28,10.06h-19.95c-1.14,0-4.57,2.35-4.95,3.7-2.91,10.2,16.82,5.1,21.82,6.81l.73,9.83h-18.38c-1.45,0-4.27,3.23-4.38,5.09-.13,2.26,2.54,5.86,4.38,5.86h20.73v10.17h-24.64c-1.44,0-6.89-3.14-8.13-4.39-1.31-1.32-3.28-5.69-3.61-5.79-1.74-.48-2.62,5.69-4.69,6.26-2.43,1.94-4.9,3.25-8.02,3.71-8.5,1.25-34.06,1.17-42.73.12-4.53-.55-8.79-2.82-11.3-6.69-.45-.69-2.47-5-2.47-5.35V.73h11.34c1.12.69,1.08,1.56,1.21,2.7,1.27,10.84-1.05,24.1-.02,35.22l3.52,3.52c11.36-.95,24.9,1.34,35.98.03,5.59-.66,7.17-7.02,2.66-9.73-4.04-2.42-10.76-.6-15.62-1.59-10.58-2.14-14.04-15.56-8.12-23.85,6.85-9.59,24.09-5.51,34.26-6.2,2.43.79.86,7.84,1.28,10.06Z"/>
  <path d="M180.51.17c11.71-1.12,24.51,4.93,28.12,16.82,1.74,5.74,1.84,33.78.93,40.39-2.38,17.26-31.52,13.13-27.65-5.03-3.66-1.06-6.96-1.14-10.59-2.73-22.78-10-17.95-46.85,9.2-49.44ZM197.73,30.3c.46-.79.28-5.9.09-7.21-2.38-16.42-26.1-16.91-28.68.12-1.09,7.17,2.95,16.43,10.54,18.01,7.65,1.6,8.45-3.58,13.51-8.04,1.03-.91,4.4-2.66,4.54-2.89ZM198.68,42.19c-4.04,2.3-7.72,9.54-5.67,13.89,1.65,3.5,5.67,1.13,5.67-.99v-12.91Z"/>
  <path class="b" d="M19.55,32.02c2.34-5.79,3.58-13.75,6.21-19.21.44-.92.65-2.09,1.99-1.92l6.66,21.13h-14.86Z"/>
  <path class="b" d="M223.71,12.07c.78-2.54,13.72-1.22,16.18,1.42,3.58,3.84,1.08,13.05-3.27,13.05h-12.91v-14.47Z"/>
  <path class="b" d="M316.79,26.54v-15.64c6.4-.03,16.33-1.39,17.68,7.03.51,3.2-2.34,8.62-5.56,8.62h-12.12Z"/>
  <path class="b" d="M360.59,12.07c.54-1.75,6.45-1.29,8.13-1.08,6.44.8,9.69,4.38,8.13,11.09-.29,1.23-3.51,5.25-4.13,5.25h-12.12v-15.25Z"/>
  <path class="b" d="M286.28,32.02h-15.64c3.52-6.64,4.17-14.85,8.21-21.1,1.29,0,6.41,18.45,7.43,21.1Z"/>
  <path class="b" d="M197.73,30.3c-.14.23-3.51,1.98-4.54,2.89-5.05,4.46-5.86,9.64-13.51,8.04-7.59-1.58-11.63-10.84-10.54-18.01,2.59-17.03,26.3-16.54,28.68-.12.19,1.31.37,6.41-.09,7.21Z"/>
  <path class="b" d="M198.68,42.19v12.91c0,2.12-4.03,4.49-5.67.99-2.05-4.35,1.64-11.59,5.67-13.89Z"/>
</svg>